# xmcd
#
# Track frame offsets: 
#        225
#        16048
#        31896
#        55162
#        76439
#        88926
#        102931
#        122117
#        142241
#        169733
#        186362
#        202020
#        219110
#
# Disc length: 3093 seconds
#
# Revision: 2
# Processed by: cddbd v1.5.2PL0 Copyright (c) Steve Scherf et al.
# Submitted via: ExactAudioCopyFreeDBPlugin 1.0
#
DISCID=b40c120d
DTITLE=Junior Kimbrough - Do the Rump!
DYEAR=1997
DGENRE=Blues
TTITLE0=Keep Your Hands Off Her
TTITLE1=I Feel Good, Little Girl
TTITLE2=You Better Run
TTITLE3=I'm So Glad Trouble Don't Last Always
TTITLE4=Done Got Old
TTITLE5=Please Don't Leave Me Baby
TTITLE6=Come On and Go with Me
TTITLE7=Do the Rump!
TTITLE8=I Want to Know What's Wrong with You
TTITLE9=Nobody But You Baby
TTITLE10=Too Late Baby
TTITLE11=My Mama Done Told Me
TTITLE12=Walk with Me
EXTD=
EXTT0=
EXTT1=
EXTT2=
EXTT3=
EXTT4=
EXTT5=
EXTT6=
EXTT7=
EXTT8=
EXTT9=
EXTT10=
EXTT11=
EXTT12=
PLAYORDER=
